:FULLY-SPECIFIED
:FORCE-ALL-JOINTS-BE-3DOF
:DEGREES
372
root 9.31625 17.1352 16.1069 5.85225 3.84167 -3.48019
lfemur -33.8064 6.42084 -17.2515
ltibia 54.6869 0 0
lfoot -12.9059 10.5219 0
ltoes -9.66735 0 0
rfemur -11.915 5.80168 29.7144
rtibia 27.5444 0 0
rfoot -18.8154 2.50903 0
rtoes -17.5246 0 0
lowerback -5.58718 0.3303 0.40258
upperback -0.595673 0.343073 2.96105
thorax 2.50233 0.163491 2.84912
lowerneck -19.9656 -6.22485 -12.7984
upperneck 21.448 -8.085 12.9999
head 11.3716 -3.20918 5.6546
lclavicle -8.84294e-15 -8.71706e-15 0
lhumerus -45.2896 -16.5336 96.5354
lradius 26.6021 0 0
lwrist 9.52899 0 0
lhand -13.3862 -21.834 0
lfingers 7.12502 0 0
lthumb 12.7211 7.76107 0
rclavicle -8.84294e-15 -8.71706e-15 0
rhumerus -33.4412 17.7145 -84.0437
rradius 44.0059 0 0
rwrist -23.8586 0 0
rhand -31.6531 -26.7925 0
rfingers 7.12502 0 0
rthumb -4.91379 -56.7157 0
373
root 9.32346 17.1315 16.2266 5.80915 3.53625 -3.57793
lfemur -34.6177 6.25048 -17.3232
ltibia 53.3412 0 0
lfoot -13.229 10.3887 0
ltoes -10.1141 0 0
rfemur -11.1748 5.83979 29.8762
rtibia 27.1222 0 0
rfoot -18.978 2.62907 0
rtoes -17.8759 0 0
lowerback -5.57933 0.476603 0.4868
upperback -0.542976 0.531019 2.98493
thorax 2.54488 0.257369 2.84074
lowerneck -19.9752 -6.22191 -12.7511
upperneck 21.5207 -8.07758 12.9091
head 11.3924 -3.21151 5.61511
lclavicle -1.1767e-14 -9.88937e-15 0
lhumerus -45.6434 -16.0767 96.2907
lradius 26.6472 0 0
lwrist 9.4854 0 0
lhand -13.3024 -21.971 0
lfingers 7.12502 0 0
lthumb 12.8018 7.61889 0
rclavicle -1.1767e-14 -9.88937e-15 0
rhumerus -32.9333 17.8805 -83.9255
rradius 44.1645 0 0
rwrist -23.7963 0 0
rhand -31.7233 -26.7303 0
rfingers 7.12502 0 0
rthumb -4.9816 -56.6519 0
374
root 9.33095 17.1276 16.3472 5.77023 3.23813 -3.67844
lfemur -35.3931 6.06202 -17.3653
ltibia 51.9948 0 0
lfoot -13.5374 10.2765 0
ltoes -10.5391 0 0
rfemur -10.4178 5.87581 30.035
rtibia 26.6609 0 0
rfoot -19.1033 2.75135 0
rtoes -18.1855 0 0
lowerback -5.57724 0.620096 0.572481
upperback -0.491832 0.714745 3.00988
thorax 2.58952 0.349196 2.83278
lowerneck -19.9824 -6.21905 -12.709
upperneck 21.5884 -8.07015 12.8246
head 11.4115 -3.21365 5.57881
lclavicle -1.44955e-14 -1.09601e-14 0
lhumerus -45.9913 -15.6333 96.0612
lradius 26.6906 0 0
lwrist 9.43999 0 0
lhand -13.214 -22.0992 0
lfingers 7.12502 0 0
lthumb 12.8871 7.48515 0
rclavicle -1.44955e-14 -1.09601e-14 0
rhumerus -32.4424 18.0301 -83.815
rradius 44.3018 0 0
rwrist -23.7268 0 0
rhand -31.7847 -26.6612 0
rfingers 7.12502 0 0
rthumb -5.04083 -56.5813 0
375
root 9.33869 17.1235 16.4688 5.73633 2.94905 -3.78208
lfemur -36.1322 5.8541 -17.3745
ltibia 50.6629 0 0
lfoot -13.8317 10.1921 0
ltoes -10.936 0 0
rfemur -9.64196 5.91018 30.1908
rtibia 26.1554 0 0
rfoot -19.1868 2.87552 0
rtoes -18.4457 0 0
lowerback -5.58143 0.760403 0.659967
upperback -0.442652 0.893689 3.03583
thorax 2.63609 0.438706 2.82504
lowerneck -19.9868 -6.21657 -12.6731
upperneck 21.65 -8.06308 12.7479
head 11.4284 -3.2157 5.54637
lclavicle -1.69829e-14 -1.19042e-14 0
lhumerus -46.3333 -15.2067 95.8495
lradius 26.7311 0 0
lwrist 9.39392 0 0
lhand -13.1214 -22.2155 0
lfingers 7.12502 0 0
lthumb 12.9763 7.36291 0
rclavicle -1.69829e-14 -1.19042e-14 0
rhumerus -31.9715 18.1629 -83.7148
rradius 44.4168 0 0
rwrist -23.6519 0 0
rhand -31.8363 -26.5847 0
rfingers 7.12502 0 0
rthumb -5.09069 -56.5036 0
376
root 9.34665 17.1194 16.5916 5.70829 2.67077 -3.88923
lfemur -36.8343 5.62533 -17.3472
ltibia 49.3611 0 0
lfoot -14.112 10.1421 0
ltoes -11.2982 0 0
rfemur -8.84507 5.94333 30.3437
rtibia 25.6006 0 0
rfoot -19.2241 3.00126 0
rtoes -18.6491 0 0
lowerback -5.59244 0.89715 0.749603
upperback -0.395844 1.06729 3.06273
thorax 2.68444 0.525631 2.81728
lowerneck -19.9879 -6.21473 -12.6446
upperneck 21.7042 -8.05674 12.6806
head 11.443 -3.21778 5.51846
lclavicle -1.91833e-14 -1.26967e-14 0
lhumerus -46.6696 -14.7999 95.6581
lradius 26.7674 0 0
lwrist 9.34838 0 0
lhand -13.0252 -22.3169 0
lfingers 7.12502 0 0
lthumb 13.069 7.25519 0
rclavicle -1.91833e-14 -1.26967e-14 0
rhumerus -31.5239 18.278 -83.6273
rradius 44.5086 0 0
rwrist -23.5735 0 0
rhand -31.8774 -26.5004 0
rfingers 7.12502 0 0
rthumb -5.13039 -56.4184 0
377
root 9.35477 17.1154 16.7157 5.68696 2.40503 -4.00026
lfemur -37.4989 5.37436 -17.2802
ltibia 48.1047 0 0
lfoot -14.379 10.1334 0
ltoes -11.6195 0 0
rfemur -8.02498 5.97569 30.4936
rtibia 24.9913 0 0
rfoot -19.2109 3.1282 0
rtoes -18.788 0 0
lowerback -5.6108 1.02996 0.841733
upperback -0.351819 1.23498 3.09048
thorax 2.7344 0.609706 2.80931
lowerneck -19.9855 -6.21383 -12.6246
upperneck 21.7499 -8.05152 12.6242
head 11.4548 -3.21999 5.49574
lclavicle -2.1051e-14 -1.33126e-14 0
lhumerus -47.0002 -14.4161 95.4899
lradius 26.7984 0 0
lwrist 9.30455 0 0
lhand -12.9258 -22.4004 0
lfingers 7.12502 0 0
lthumb 13.1648 7.16506 0
rclavicle -2.1051e-14 -1.33126e-14 0
rhumerus -31.1025 18.3748 -83.555
rradius 44.5762 0 0
rwrist -23.4933 0 0
rhand -31.9072 -26.4079 0
rfingers 7.12502 0 0
rthumb -5.15916 -56.3252 0
